<mxfile host="app.diagrams.net" modified="2023-10-24T02:14:25.702Z" agent="Mozilla/5.0 (Windows NT 10.0; Win64; x64) AppleWebKit/537.36 (KHTML, like Gecko) Chrome/118.0.0.0 Safari/537.36" etag="iLPYuS4hsXfPR_tg_gWS" version="22.0.6" type="device">
  <diagram name="페이지-1" id="A_xkYYA6UsEh1Y2IAowk">
    <mxGraphModel dx="5018" dy="1667" grid="1" gridSize="10" guides="1" tooltips="1" connect="1" arrows="1" fold="1" page="1" pageScale="1" pageWidth="827" pageHeight="1169" math="0" shadow="0">
      <root>
        <mxCell id="0" />
        <mxCell id="1" parent="0" />
        <mxCell id="Mj1ySlkvwCl2qYuNJyu4-726" value="&lt;span style=&quot;font-size: 30px;&quot;&gt;ERD-RDB&lt;/span&gt;" style="text;html=1;strokeColor=none;fillColor=none;align=center;verticalAlign=middle;whiteSpace=wrap;rounded=0;fontStyle=0" vertex="1" parent="1">
          <mxGeometry x="-517" y="1110" width="205" height="60" as="geometry" />
        </mxCell>
        <mxCell id="Mj1ySlkvwCl2qYuNJyu4-852" style="edgeStyle=orthogonalEdgeStyle;rounded=0;orthogonalLoop=1;jettySize=auto;html=1;exitX=0.5;exitY=1;exitDx=0;exitDy=0;entryX=0.5;entryY=0;entryDx=0;entryDy=0;" edge="1" parent="1" source="Mj1ySlkvwCl2qYuNJyu4-727" target="Mj1ySlkvwCl2qYuNJyu4-790">
          <mxGeometry relative="1" as="geometry">
            <mxPoint x="-50" y="2160" as="targetPoint" />
          </mxGeometry>
        </mxCell>
        <mxCell id="Mj1ySlkvwCl2qYuNJyu4-727" value="회원" style="rounded=0;whiteSpace=wrap;html=1;fontSize=14;fontStyle=1;strokeWidth=2;" vertex="1" parent="1">
          <mxGeometry x="-211" y="1979.5" width="130" height="390.5" as="geometry" />
        </mxCell>
        <mxCell id="Mj1ySlkvwCl2qYuNJyu4-728" value="" style="rounded=0;whiteSpace=wrap;html=1;" vertex="1" parent="1">
          <mxGeometry x="-503" y="1181.5" width="92" height="40" as="geometry" />
        </mxCell>
        <mxCell id="Mj1ySlkvwCl2qYuNJyu4-729" value="" style="ellipse;whiteSpace=wrap;html=1;" vertex="1" parent="1">
          <mxGeometry x="-291" y="1181.5" width="90" height="40" as="geometry" />
        </mxCell>
        <mxCell id="Mj1ySlkvwCl2qYuNJyu4-730" value="Entity" style="text;html=1;strokeColor=none;fillColor=none;align=center;verticalAlign=middle;whiteSpace=wrap;rounded=0;" vertex="1" parent="1">
          <mxGeometry x="-381" y="1186.5" width="60" height="30" as="geometry" />
        </mxCell>
        <mxCell id="Mj1ySlkvwCl2qYuNJyu4-731" value="Attribute" style="text;html=1;strokeColor=none;fillColor=none;align=center;verticalAlign=middle;whiteSpace=wrap;rounded=0;" vertex="1" parent="1">
          <mxGeometry x="-180.9999999999999" y="1186.5" width="60" height="30" as="geometry" />
        </mxCell>
        <mxCell id="Mj1ySlkvwCl2qYuNJyu4-732" value="" style="rhombus;whiteSpace=wrap;html=1;" vertex="1" parent="1">
          <mxGeometry x="-517" y="1241.5" width="120" height="40" as="geometry" />
        </mxCell>
        <mxCell id="Mj1ySlkvwCl2qYuNJyu4-733" value="Relation" style="text;html=1;strokeColor=none;fillColor=none;align=center;verticalAlign=middle;whiteSpace=wrap;rounded=0;" vertex="1" parent="1">
          <mxGeometry x="-381" y="1246.5" width="60" height="30" as="geometry" />
        </mxCell>
        <mxCell id="Mj1ySlkvwCl2qYuNJyu4-734" value="" style="endArrow=none;html=1;rounded=0;" edge="1" parent="1">
          <mxGeometry width="50" height="50" relative="1" as="geometry">
            <mxPoint x="-291" y="1261.5" as="sourcePoint" />
            <mxPoint x="-200.9999999999999" y="1261.5" as="targetPoint" />
          </mxGeometry>
        </mxCell>
        <mxCell id="Mj1ySlkvwCl2qYuNJyu4-735" value="Link" style="text;html=1;strokeColor=none;fillColor=none;align=center;verticalAlign=middle;whiteSpace=wrap;rounded=0;" vertex="1" parent="1">
          <mxGeometry x="-178.9999999999999" y="1246.5" width="60" height="30" as="geometry" />
        </mxCell>
        <mxCell id="Mj1ySlkvwCl2qYuNJyu4-736" value="아이디" style="ellipse;whiteSpace=wrap;html=1;fontStyle=4;labelBackgroundColor=none;fillColor=#b1ddf0;strokeColor=#10739e;" vertex="1" parent="1">
          <mxGeometry x="-540" y="1975.5" width="80" height="30" as="geometry" />
        </mxCell>
        <mxCell id="Mj1ySlkvwCl2qYuNJyu4-737" value="비밀번호" style="ellipse;whiteSpace=wrap;html=1;" vertex="1" parent="1">
          <mxGeometry x="-540" y="2015.5" width="80" height="30" as="geometry" />
        </mxCell>
        <mxCell id="Mj1ySlkvwCl2qYuNJyu4-738" value="" style="endArrow=none;html=1;rounded=0;exitX=1;exitY=0.5;exitDx=0;exitDy=0;entryX=0;entryY=0.5;entryDx=0;entryDy=0;" edge="1" parent="1" source="Mj1ySlkvwCl2qYuNJyu4-736" target="Mj1ySlkvwCl2qYuNJyu4-727">
          <mxGeometry width="50" height="50" relative="1" as="geometry">
            <mxPoint x="36.270000000000095" y="2159.5" as="sourcePoint" />
            <mxPoint x="-93.7299999999999" y="2119.5" as="targetPoint" />
          </mxGeometry>
        </mxCell>
        <mxCell id="Mj1ySlkvwCl2qYuNJyu4-739" value="" style="endArrow=none;html=1;rounded=0;exitX=1;exitY=0.5;exitDx=0;exitDy=0;entryX=0;entryY=0.5;entryDx=0;entryDy=0;" edge="1" parent="1" source="Mj1ySlkvwCl2qYuNJyu4-737" target="Mj1ySlkvwCl2qYuNJyu4-727">
          <mxGeometry width="50" height="50" relative="1" as="geometry">
            <mxPoint x="-264.73" y="2209.5" as="sourcePoint" />
            <mxPoint x="-94.99999999999989" y="1889.5" as="targetPoint" />
          </mxGeometry>
        </mxCell>
        <mxCell id="Mj1ySlkvwCl2qYuNJyu4-740" value="" style="endArrow=none;html=1;rounded=0;exitX=1;exitY=0.5;exitDx=0;exitDy=0;entryX=0;entryY=0.5;entryDx=0;entryDy=0;" edge="1" parent="1" source="Mj1ySlkvwCl2qYuNJyu4-751" target="Mj1ySlkvwCl2qYuNJyu4-727">
          <mxGeometry width="50" height="50" relative="1" as="geometry">
            <mxPoint x="-455" y="1949.5" as="sourcePoint" />
            <mxPoint x="-184.9999999999999" y="1979.5" as="targetPoint" />
          </mxGeometry>
        </mxCell>
        <mxCell id="Mj1ySlkvwCl2qYuNJyu4-741" value="" style="endArrow=none;html=1;rounded=0;exitX=1;exitY=0.5;exitDx=0;exitDy=0;entryX=0;entryY=0.5;entryDx=0;entryDy=0;" edge="1" parent="1" source="Mj1ySlkvwCl2qYuNJyu4-750" target="Mj1ySlkvwCl2qYuNJyu4-727">
          <mxGeometry width="50" height="50" relative="1" as="geometry">
            <mxPoint x="-455" y="1909.5" as="sourcePoint" />
            <mxPoint x="-215" y="2039.5" as="targetPoint" />
          </mxGeometry>
        </mxCell>
        <mxCell id="Mj1ySlkvwCl2qYuNJyu4-742" value="" style="endArrow=none;html=1;rounded=0;exitX=1;exitY=0.5;exitDx=0;exitDy=0;entryX=0;entryY=0.5;entryDx=0;entryDy=0;" edge="1" parent="1" source="Mj1ySlkvwCl2qYuNJyu4-752" target="Mj1ySlkvwCl2qYuNJyu4-727">
          <mxGeometry width="50" height="50" relative="1" as="geometry">
            <mxPoint x="-452.87999999999965" y="1995.5400000000009" as="sourcePoint" />
            <mxPoint x="-93.99999999999989" y="2119.5" as="targetPoint" />
          </mxGeometry>
        </mxCell>
        <mxCell id="Mj1ySlkvwCl2qYuNJyu4-747" value="1:1, 1:n, n:m" style="text;html=1;align=center;verticalAlign=middle;resizable=0;points=[];autosize=1;strokeColor=none;fillColor=none;" vertex="1" parent="1">
          <mxGeometry x="-396" y="1271.5" width="90" height="30" as="geometry" />
        </mxCell>
        <mxCell id="Mj1ySlkvwCl2qYuNJyu4-749" value="공지사항" style="rounded=0;whiteSpace=wrap;html=1;fontSize=14;fontStyle=1;strokeWidth=2;" vertex="1" parent="1">
          <mxGeometry x="462.0000000000001" y="2498.5" width="130" height="50" as="geometry" />
        </mxCell>
        <mxCell id="Mj1ySlkvwCl2qYuNJyu4-750" value="이름" style="ellipse;whiteSpace=wrap;html=1;" vertex="1" parent="1">
          <mxGeometry x="-540" y="2055.5" width="80" height="30" as="geometry" />
        </mxCell>
        <mxCell id="Mj1ySlkvwCl2qYuNJyu4-751" value="이메일" style="ellipse;whiteSpace=wrap;html=1;" vertex="1" parent="1">
          <mxGeometry x="-540" y="2095.5" width="80" height="30" as="geometry" />
        </mxCell>
        <mxCell id="Mj1ySlkvwCl2qYuNJyu4-752" value="연락처" style="ellipse;whiteSpace=wrap;html=1;" vertex="1" parent="1">
          <mxGeometry x="-540" y="2135.5" width="80" height="30" as="geometry" />
        </mxCell>
        <mxCell id="Mj1ySlkvwCl2qYuNJyu4-753" value="생년월일" style="ellipse;whiteSpace=wrap;html=1;" vertex="1" parent="1">
          <mxGeometry x="-540" y="2175.5" width="80" height="30" as="geometry" />
        </mxCell>
        <mxCell id="Mj1ySlkvwCl2qYuNJyu4-754" value="주소" style="ellipse;whiteSpace=wrap;html=1;" vertex="1" parent="1">
          <mxGeometry x="-540" y="2215.5" width="80" height="30" as="geometry" />
        </mxCell>
        <mxCell id="Mj1ySlkvwCl2qYuNJyu4-755" value="가입일" style="ellipse;whiteSpace=wrap;html=1;" vertex="1" parent="1">
          <mxGeometry x="-540" y="2255.5" width="80" height="30" as="geometry" />
        </mxCell>
        <mxCell id="Mj1ySlkvwCl2qYuNJyu4-756" value="포인트" style="ellipse;whiteSpace=wrap;html=1;" vertex="1" parent="1">
          <mxGeometry x="-540" y="2295.5" width="80" height="30" as="geometry" />
        </mxCell>
        <mxCell id="Mj1ySlkvwCl2qYuNJyu4-757" value="등급" style="ellipse;whiteSpace=wrap;html=1;" vertex="1" parent="1">
          <mxGeometry x="-540" y="2337.5" width="80" height="30" as="geometry" />
        </mxCell>
        <mxCell id="Mj1ySlkvwCl2qYuNJyu4-758" value="" style="endArrow=none;html=1;rounded=0;exitX=1;exitY=0.5;exitDx=0;exitDy=0;entryX=0;entryY=0.5;entryDx=0;entryDy=0;" edge="1" parent="1" source="Mj1ySlkvwCl2qYuNJyu4-753" target="Mj1ySlkvwCl2qYuNJyu4-727">
          <mxGeometry width="50" height="50" relative="1" as="geometry">
            <mxPoint x="-405" y="1994.5" as="sourcePoint" />
            <mxPoint x="-265" y="2079.5" as="targetPoint" />
          </mxGeometry>
        </mxCell>
        <mxCell id="Mj1ySlkvwCl2qYuNJyu4-759" value="" style="endArrow=none;html=1;rounded=0;exitX=1;exitY=0.5;exitDx=0;exitDy=0;entryX=0;entryY=0.5;entryDx=0;entryDy=0;" edge="1" parent="1" source="Mj1ySlkvwCl2qYuNJyu4-754" target="Mj1ySlkvwCl2qYuNJyu4-727">
          <mxGeometry width="50" height="50" relative="1" as="geometry">
            <mxPoint x="-405" y="2034.5" as="sourcePoint" />
            <mxPoint x="-235" y="2059.5" as="targetPoint" />
          </mxGeometry>
        </mxCell>
        <mxCell id="Mj1ySlkvwCl2qYuNJyu4-760" value="" style="endArrow=none;html=1;rounded=0;exitX=1;exitY=0.5;exitDx=0;exitDy=0;entryX=0;entryY=0.5;entryDx=0;entryDy=0;" edge="1" parent="1" source="Mj1ySlkvwCl2qYuNJyu4-755" target="Mj1ySlkvwCl2qYuNJyu4-727">
          <mxGeometry width="50" height="50" relative="1" as="geometry">
            <mxPoint x="-405" y="2116.5" as="sourcePoint" />
            <mxPoint x="-206.9999999999999" y="2054.5" as="targetPoint" />
          </mxGeometry>
        </mxCell>
        <mxCell id="Mj1ySlkvwCl2qYuNJyu4-761" value="" style="endArrow=none;html=1;rounded=0;exitX=1;exitY=0.5;exitDx=0;exitDy=0;entryX=0;entryY=0.5;entryDx=0;entryDy=0;" edge="1" parent="1" source="Mj1ySlkvwCl2qYuNJyu4-756" target="Mj1ySlkvwCl2qYuNJyu4-727">
          <mxGeometry width="50" height="50" relative="1" as="geometry">
            <mxPoint x="-405" y="2154.5" as="sourcePoint" />
            <mxPoint x="-235" y="2089.5" as="targetPoint" />
          </mxGeometry>
        </mxCell>
        <mxCell id="Mj1ySlkvwCl2qYuNJyu4-762" value="" style="endArrow=none;html=1;rounded=0;exitX=1;exitY=0.5;exitDx=0;exitDy=0;entryX=0;entryY=0.5;entryDx=0;entryDy=0;" edge="1" parent="1" source="Mj1ySlkvwCl2qYuNJyu4-757" target="Mj1ySlkvwCl2qYuNJyu4-727">
          <mxGeometry width="50" height="50" relative="1" as="geometry">
            <mxPoint x="-405" y="2194.5" as="sourcePoint" />
            <mxPoint x="-186.9999999999999" y="2074.5" as="targetPoint" />
          </mxGeometry>
        </mxCell>
        <mxCell id="Mj1ySlkvwCl2qYuNJyu4-772" value="글번호" style="ellipse;whiteSpace=wrap;html=1;fillColor=#b1ddf0;strokeColor=#10739e;fontStyle=4;" vertex="1" parent="1">
          <mxGeometry x="713.0000000000001" y="2430" width="80" height="30" as="geometry" />
        </mxCell>
        <mxCell id="Mj1ySlkvwCl2qYuNJyu4-773" value="글제목" style="ellipse;whiteSpace=wrap;html=1;" vertex="1" parent="1">
          <mxGeometry x="713.0000000000001" y="2469" width="80" height="30" as="geometry" />
        </mxCell>
        <mxCell id="Mj1ySlkvwCl2qYuNJyu4-774" value="글내용" style="ellipse;whiteSpace=wrap;html=1;" vertex="1" parent="1">
          <mxGeometry x="713.0000000000001" y="2509" width="80" height="30" as="geometry" />
        </mxCell>
        <mxCell id="Mj1ySlkvwCl2qYuNJyu4-775" value="작성일" style="ellipse;whiteSpace=wrap;html=1;" vertex="1" parent="1">
          <mxGeometry x="713.0000000000001" y="2549" width="80" height="30" as="geometry" />
        </mxCell>
        <mxCell id="Mj1ySlkvwCl2qYuNJyu4-777" value="자유게시판" style="rounded=0;whiteSpace=wrap;html=1;fontSize=14;fontStyle=1;strokeWidth=2;" vertex="1" parent="1">
          <mxGeometry x="-116.99999999999989" y="2929.5" width="130" height="50" as="geometry" />
        </mxCell>
        <mxCell id="Mj1ySlkvwCl2qYuNJyu4-778" value="글번호" style="ellipse;whiteSpace=wrap;html=1;fillColor=#b1ddf0;strokeColor=#10739e;fontStyle=4;" vertex="1" parent="1">
          <mxGeometry x="434.0000000000001" y="2870.5" width="80" height="30" as="geometry" />
        </mxCell>
        <mxCell id="Mj1ySlkvwCl2qYuNJyu4-779" value="글제목" style="ellipse;whiteSpace=wrap;html=1;" vertex="1" parent="1">
          <mxGeometry x="434.0000000000001" y="2909.5" width="80" height="30" as="geometry" />
        </mxCell>
        <mxCell id="Mj1ySlkvwCl2qYuNJyu4-780" value="글내용" style="ellipse;whiteSpace=wrap;html=1;" vertex="1" parent="1">
          <mxGeometry x="434.0000000000001" y="2949.5" width="80" height="30" as="geometry" />
        </mxCell>
        <mxCell id="Mj1ySlkvwCl2qYuNJyu4-781" value="작성자" style="ellipse;whiteSpace=wrap;html=1;" vertex="1" parent="1">
          <mxGeometry x="434.0000000000001" y="2989.5" width="80" height="30" as="geometry" />
        </mxCell>
        <mxCell id="Mj1ySlkvwCl2qYuNJyu4-782" value="작성일" style="ellipse;whiteSpace=wrap;html=1;" vertex="1" parent="1">
          <mxGeometry x="434.0000000000001" y="3029.5" width="80" height="30" as="geometry" />
        </mxCell>
        <mxCell id="Mj1ySlkvwCl2qYuNJyu4-783" value="조회수" style="ellipse;whiteSpace=wrap;html=1;" vertex="1" parent="1">
          <mxGeometry x="434.0000000000001" y="3069.5" width="80" height="30" as="geometry" />
        </mxCell>
        <mxCell id="Mj1ySlkvwCl2qYuNJyu4-784" value="" style="endArrow=none;html=1;rounded=0;exitX=0;exitY=0.5;exitDx=0;exitDy=0;entryX=1;entryY=0.5;entryDx=0;entryDy=0;" edge="1" parent="1" source="Mj1ySlkvwCl2qYuNJyu4-778" target="Mj1ySlkvwCl2qYuNJyu4-777">
          <mxGeometry width="50" height="50" relative="1" as="geometry">
            <mxPoint x="497.5000000000001" y="3012.5" as="sourcePoint" />
            <mxPoint x="341.5000000000001" y="2932.5" as="targetPoint" />
          </mxGeometry>
        </mxCell>
        <mxCell id="Mj1ySlkvwCl2qYuNJyu4-785" value="" style="endArrow=none;html=1;rounded=0;exitX=0;exitY=0.5;exitDx=0;exitDy=0;entryX=1;entryY=0.5;entryDx=0;entryDy=0;" edge="1" parent="1" source="Mj1ySlkvwCl2qYuNJyu4-779" target="Mj1ySlkvwCl2qYuNJyu4-777">
          <mxGeometry width="50" height="50" relative="1" as="geometry">
            <mxPoint x="497.5000000000001" y="3126.5" as="sourcePoint" />
            <mxPoint x="403.5000000000001" y="3242.5" as="targetPoint" />
          </mxGeometry>
        </mxCell>
        <mxCell id="Mj1ySlkvwCl2qYuNJyu4-786" value="" style="endArrow=none;html=1;rounded=0;exitX=0;exitY=0.5;exitDx=0;exitDy=0;entryX=1;entryY=0.5;entryDx=0;entryDy=0;" edge="1" parent="1" source="Mj1ySlkvwCl2qYuNJyu4-780" target="Mj1ySlkvwCl2qYuNJyu4-777">
          <mxGeometry width="50" height="50" relative="1" as="geometry">
            <mxPoint x="497.5000000000001" y="3165.5" as="sourcePoint" />
            <mxPoint x="393.5000000000001" y="3222.5" as="targetPoint" />
          </mxGeometry>
        </mxCell>
        <mxCell id="Mj1ySlkvwCl2qYuNJyu4-787" value="" style="endArrow=none;html=1;rounded=0;exitX=0;exitY=0.5;exitDx=0;exitDy=0;entryX=1;entryY=0.5;entryDx=0;entryDy=0;" edge="1" parent="1" source="Mj1ySlkvwCl2qYuNJyu4-781" target="Mj1ySlkvwCl2qYuNJyu4-777">
          <mxGeometry width="50" height="50" relative="1" as="geometry">
            <mxPoint x="497.5000000000001" y="3205.5" as="sourcePoint" />
            <mxPoint x="389.5000000000001" y="3226.5" as="targetPoint" />
          </mxGeometry>
        </mxCell>
        <mxCell id="Mj1ySlkvwCl2qYuNJyu4-788" value="" style="endArrow=none;html=1;rounded=0;exitX=0;exitY=0.5;exitDx=0;exitDy=0;entryX=1;entryY=0.5;entryDx=0;entryDy=0;" edge="1" parent="1" source="Mj1ySlkvwCl2qYuNJyu4-782" target="Mj1ySlkvwCl2qYuNJyu4-777">
          <mxGeometry width="50" height="50" relative="1" as="geometry">
            <mxPoint x="497.5000000000001" y="3245.5" as="sourcePoint" />
            <mxPoint x="413.5000000000001" y="3242.5" as="targetPoint" />
          </mxGeometry>
        </mxCell>
        <mxCell id="Mj1ySlkvwCl2qYuNJyu4-789" value="" style="endArrow=none;html=1;rounded=0;exitX=0;exitY=0.5;exitDx=0;exitDy=0;entryX=1;entryY=0.5;entryDx=0;entryDy=0;" edge="1" parent="1" source="Mj1ySlkvwCl2qYuNJyu4-783" target="Mj1ySlkvwCl2qYuNJyu4-777">
          <mxGeometry width="50" height="50" relative="1" as="geometry">
            <mxPoint x="497.5000000000001" y="3285.5" as="sourcePoint" />
            <mxPoint x="389.5000000000001" y="3262.5" as="targetPoint" />
          </mxGeometry>
        </mxCell>
        <mxCell id="Mj1ySlkvwCl2qYuNJyu4-859" style="edgeStyle=orthogonalEdgeStyle;rounded=0;orthogonalLoop=1;jettySize=auto;html=1;exitX=1;exitY=0.5;exitDx=0;exitDy=0;entryX=0;entryY=0.5;entryDx=0;entryDy=0;" edge="1" parent="1" source="Mj1ySlkvwCl2qYuNJyu4-790" target="Mj1ySlkvwCl2qYuNJyu4-854">
          <mxGeometry relative="1" as="geometry" />
        </mxCell>
        <mxCell id="Mj1ySlkvwCl2qYuNJyu4-790" value="보드게시판" style="rhombus;whiteSpace=wrap;html=1;fontSize=14;fontStyle=1;strokeWidth=2;" vertex="1" parent="1">
          <mxGeometry x="-209.9999999999999" y="2592" width="130" height="50" as="geometry" />
        </mxCell>
        <mxCell id="Mj1ySlkvwCl2qYuNJyu4-791" value="" style="endArrow=none;html=1;rounded=0;exitX=0;exitY=0.5;exitDx=0;exitDy=0;entryX=1;entryY=0.5;entryDx=0;entryDy=0;" edge="1" parent="1" source="Mj1ySlkvwCl2qYuNJyu4-772" target="Mj1ySlkvwCl2qYuNJyu4-749">
          <mxGeometry width="50" height="50" relative="1" as="geometry">
            <mxPoint x="498.0000000000001" y="2403.5" as="sourcePoint" />
            <mxPoint x="634.0000000000001" y="2483.5" as="targetPoint" />
          </mxGeometry>
        </mxCell>
        <mxCell id="Mj1ySlkvwCl2qYuNJyu4-792" value="" style="endArrow=none;html=1;rounded=0;exitX=0;exitY=0.5;exitDx=0;exitDy=0;entryX=1;entryY=0.5;entryDx=0;entryDy=0;" edge="1" parent="1" source="Mj1ySlkvwCl2qYuNJyu4-773" target="Mj1ySlkvwCl2qYuNJyu4-749">
          <mxGeometry width="50" height="50" relative="1" as="geometry">
            <mxPoint x="723.0000000000001" y="2474.5" as="sourcePoint" />
            <mxPoint x="624.0000000000001" y="2533.5" as="targetPoint" />
          </mxGeometry>
        </mxCell>
        <mxCell id="Mj1ySlkvwCl2qYuNJyu4-793" value="" style="endArrow=none;html=1;rounded=0;exitX=0;exitY=0.5;exitDx=0;exitDy=0;entryX=1;entryY=0.5;entryDx=0;entryDy=0;" edge="1" parent="1" source="Mj1ySlkvwCl2qYuNJyu4-774" target="Mj1ySlkvwCl2qYuNJyu4-749">
          <mxGeometry width="50" height="50" relative="1" as="geometry">
            <mxPoint x="723.0000000000001" y="2513.5" as="sourcePoint" />
            <mxPoint x="602.0000000000001" y="2533.5" as="targetPoint" />
          </mxGeometry>
        </mxCell>
        <mxCell id="Mj1ySlkvwCl2qYuNJyu4-794" value="" style="endArrow=none;html=1;rounded=0;exitX=0;exitY=0.5;exitDx=0;exitDy=0;entryX=1;entryY=0.5;entryDx=0;entryDy=0;" edge="1" parent="1" source="Mj1ySlkvwCl2qYuNJyu4-775" target="Mj1ySlkvwCl2qYuNJyu4-749">
          <mxGeometry width="50" height="50" relative="1" as="geometry">
            <mxPoint x="723.0000000000001" y="2553.5" as="sourcePoint" />
            <mxPoint x="602.0000000000001" y="2533.5" as="targetPoint" />
          </mxGeometry>
        </mxCell>
        <mxCell id="Mj1ySlkvwCl2qYuNJyu4-795" value="글번호" style="ellipse;whiteSpace=wrap;html=1;fillColor=#b1ddf0;strokeColor=#10739e;fontStyle=4;" vertex="1" parent="1">
          <mxGeometry x="-517" y="2870.5" width="80" height="30" as="geometry" />
        </mxCell>
        <mxCell id="Mj1ySlkvwCl2qYuNJyu4-796" value="" style="endArrow=none;html=1;rounded=0;exitX=1;exitY=0.5;exitDx=0;exitDy=0;entryX=0;entryY=0.5;entryDx=0;entryDy=0;" edge="1" parent="1" source="Mj1ySlkvwCl2qYuNJyu4-795" target="Mj1ySlkvwCl2qYuNJyu4-816">
          <mxGeometry width="50" height="50" relative="1" as="geometry">
            <mxPoint x="-72.2299999999999" y="2906.5" as="sourcePoint" />
            <mxPoint x="-312" y="2990" as="targetPoint" />
          </mxGeometry>
        </mxCell>
        <mxCell id="Mj1ySlkvwCl2qYuNJyu4-797" value="" style="endArrow=none;html=1;rounded=0;exitX=1;exitY=0.5;exitDx=0;exitDy=0;entryX=0;entryY=0.5;entryDx=0;entryDy=0;" edge="1" parent="1" source="Mj1ySlkvwCl2qYuNJyu4-801" target="Mj1ySlkvwCl2qYuNJyu4-816">
          <mxGeometry width="50" height="50" relative="1" as="geometry">
            <mxPoint x="-551" y="2693.5" as="sourcePoint" />
            <mxPoint x="-312" y="2990" as="targetPoint" />
          </mxGeometry>
        </mxCell>
        <mxCell id="Mj1ySlkvwCl2qYuNJyu4-798" value="" style="endArrow=none;html=1;rounded=0;exitX=1;exitY=0.5;exitDx=0;exitDy=0;entryX=0;entryY=0.5;entryDx=0;entryDy=0;" edge="1" parent="1" source="Mj1ySlkvwCl2qYuNJyu4-805" target="Mj1ySlkvwCl2qYuNJyu4-816">
          <mxGeometry width="50" height="50" relative="1" as="geometry">
            <mxPoint x="-551" y="2773.5" as="sourcePoint" />
            <mxPoint x="-312" y="2990" as="targetPoint" />
          </mxGeometry>
        </mxCell>
        <mxCell id="Mj1ySlkvwCl2qYuNJyu4-799" value="" style="endArrow=none;html=1;rounded=0;exitX=1;exitY=0.5;exitDx=0;exitDy=0;entryX=0;entryY=0.5;entryDx=0;entryDy=0;" edge="1" parent="1" source="Mj1ySlkvwCl2qYuNJyu4-803" target="Mj1ySlkvwCl2qYuNJyu4-816">
          <mxGeometry width="50" height="50" relative="1" as="geometry">
            <mxPoint x="-551" y="2736.5" as="sourcePoint" />
            <mxPoint x="-312" y="2990" as="targetPoint" />
          </mxGeometry>
        </mxCell>
        <mxCell id="Mj1ySlkvwCl2qYuNJyu4-800" value="" style="endArrow=none;html=1;rounded=0;exitX=0.5;exitY=0;exitDx=0;exitDy=0;" edge="1" parent="1" target="Mj1ySlkvwCl2qYuNJyu4-801">
          <mxGeometry width="50" height="50" relative="1" as="geometry">
            <mxPoint x="-478" y="2919.5" as="sourcePoint" />
            <mxPoint x="-129.23000000000002" y="3092.5" as="targetPoint" />
          </mxGeometry>
        </mxCell>
        <mxCell id="Mj1ySlkvwCl2qYuNJyu4-801" value="글제목" style="ellipse;whiteSpace=wrap;html=1;" vertex="1" parent="1">
          <mxGeometry x="-517" y="2909.5" width="80" height="30" as="geometry" />
        </mxCell>
        <mxCell id="Mj1ySlkvwCl2qYuNJyu4-802" value="" style="endArrow=none;html=1;rounded=0;exitX=0.5;exitY=0;exitDx=0;exitDy=0;" edge="1" parent="1" target="Mj1ySlkvwCl2qYuNJyu4-803">
          <mxGeometry width="50" height="50" relative="1" as="geometry">
            <mxPoint x="-478" y="2962.5" as="sourcePoint" />
            <mxPoint x="-129.23000000000002" y="3092.5" as="targetPoint" />
          </mxGeometry>
        </mxCell>
        <mxCell id="Mj1ySlkvwCl2qYuNJyu4-803" value="글내용" style="ellipse;whiteSpace=wrap;html=1;" vertex="1" parent="1">
          <mxGeometry x="-517" y="2949.5" width="80" height="30" as="geometry" />
        </mxCell>
        <mxCell id="Mj1ySlkvwCl2qYuNJyu4-804" value="" style="endArrow=none;html=1;rounded=0;exitX=0.5;exitY=0;exitDx=0;exitDy=0;" edge="1" parent="1" target="Mj1ySlkvwCl2qYuNJyu4-805">
          <mxGeometry width="50" height="50" relative="1" as="geometry">
            <mxPoint x="-478" y="2999.5" as="sourcePoint" />
            <mxPoint x="-129.23000000000002" y="3092.5" as="targetPoint" />
          </mxGeometry>
        </mxCell>
        <mxCell id="Mj1ySlkvwCl2qYuNJyu4-805" value="작성자" style="ellipse;whiteSpace=wrap;html=1;" vertex="1" parent="1">
          <mxGeometry x="-517" y="2989.5" width="80" height="30" as="geometry" />
        </mxCell>
        <mxCell id="Mj1ySlkvwCl2qYuNJyu4-806" value="작성일" style="ellipse;whiteSpace=wrap;html=1;" vertex="1" parent="1">
          <mxGeometry x="-517" y="3029.5" width="80" height="30" as="geometry" />
        </mxCell>
        <mxCell id="Mj1ySlkvwCl2qYuNJyu4-807" value="학습자료실" style="rounded=0;whiteSpace=wrap;html=1;fontSize=14;fontStyle=1;strokeWidth=2;" vertex="1" parent="1">
          <mxGeometry x="461.0000000000001" y="2699.5" width="130" height="50" as="geometry" />
        </mxCell>
        <mxCell id="Mj1ySlkvwCl2qYuNJyu4-808" value="글번호" style="ellipse;whiteSpace=wrap;html=1;fillColor=#b1ddf0;strokeColor=#10739e;fontStyle=4;" vertex="1" parent="1">
          <mxGeometry x="712.0000000000001" y="2650" width="80" height="30" as="geometry" />
        </mxCell>
        <mxCell id="Mj1ySlkvwCl2qYuNJyu4-809" value="글제목" style="ellipse;whiteSpace=wrap;html=1;" vertex="1" parent="1">
          <mxGeometry x="712.0000000000001" y="2689" width="80" height="30" as="geometry" />
        </mxCell>
        <mxCell id="Mj1ySlkvwCl2qYuNJyu4-810" value="글내용" style="ellipse;whiteSpace=wrap;html=1;" vertex="1" parent="1">
          <mxGeometry x="712.0000000000001" y="2729" width="80" height="30" as="geometry" />
        </mxCell>
        <mxCell id="Mj1ySlkvwCl2qYuNJyu4-811" value="작성일" style="ellipse;whiteSpace=wrap;html=1;" vertex="1" parent="1">
          <mxGeometry x="712.0000000000001" y="2769" width="80" height="30" as="geometry" />
        </mxCell>
        <mxCell id="Mj1ySlkvwCl2qYuNJyu4-812" value="" style="endArrow=none;html=1;rounded=0;exitX=0;exitY=0.5;exitDx=0;exitDy=0;entryX=1;entryY=0.5;entryDx=0;entryDy=0;" edge="1" parent="1" source="Mj1ySlkvwCl2qYuNJyu4-808" target="Mj1ySlkvwCl2qYuNJyu4-807">
          <mxGeometry width="50" height="50" relative="1" as="geometry">
            <mxPoint x="497.0000000000001" y="2604.5" as="sourcePoint" />
            <mxPoint x="633.0000000000001" y="2684.5" as="targetPoint" />
          </mxGeometry>
        </mxCell>
        <mxCell id="Mj1ySlkvwCl2qYuNJyu4-813" value="" style="endArrow=none;html=1;rounded=0;exitX=0;exitY=0.5;exitDx=0;exitDy=0;entryX=1;entryY=0.5;entryDx=0;entryDy=0;" edge="1" parent="1" source="Mj1ySlkvwCl2qYuNJyu4-809" target="Mj1ySlkvwCl2qYuNJyu4-807">
          <mxGeometry width="50" height="50" relative="1" as="geometry">
            <mxPoint x="722.0000000000001" y="2675.5" as="sourcePoint" />
            <mxPoint x="623.0000000000001" y="2734.5" as="targetPoint" />
          </mxGeometry>
        </mxCell>
        <mxCell id="Mj1ySlkvwCl2qYuNJyu4-814" value="" style="endArrow=none;html=1;rounded=0;exitX=0;exitY=0.5;exitDx=0;exitDy=0;entryX=1;entryY=0.5;entryDx=0;entryDy=0;" edge="1" parent="1" source="Mj1ySlkvwCl2qYuNJyu4-810" target="Mj1ySlkvwCl2qYuNJyu4-807">
          <mxGeometry width="50" height="50" relative="1" as="geometry">
            <mxPoint x="722.0000000000001" y="2714.5" as="sourcePoint" />
            <mxPoint x="601.0000000000001" y="2734.5" as="targetPoint" />
          </mxGeometry>
        </mxCell>
        <mxCell id="Mj1ySlkvwCl2qYuNJyu4-815" value="" style="endArrow=none;html=1;rounded=0;exitX=0;exitY=0.5;exitDx=0;exitDy=0;entryX=1;entryY=0.5;entryDx=0;entryDy=0;" edge="1" parent="1" source="Mj1ySlkvwCl2qYuNJyu4-811" target="Mj1ySlkvwCl2qYuNJyu4-807">
          <mxGeometry width="50" height="50" relative="1" as="geometry">
            <mxPoint x="722.0000000000001" y="2754.5" as="sourcePoint" />
            <mxPoint x="601.0000000000001" y="2734.5" as="targetPoint" />
          </mxGeometry>
        </mxCell>
        <mxCell id="Mj1ySlkvwCl2qYuNJyu4-816" value="Q&amp;amp;A" style="rounded=0;whiteSpace=wrap;html=1;fontSize=14;fontStyle=1;strokeWidth=2;" vertex="1" parent="1">
          <mxGeometry x="-310" y="2928.5" width="130" height="50" as="geometry" />
        </mxCell>
        <mxCell id="Mj1ySlkvwCl2qYuNJyu4-907" style="edgeStyle=orthogonalEdgeStyle;rounded=0;orthogonalLoop=1;jettySize=auto;html=1;exitX=0.5;exitY=0;exitDx=0;exitDy=0;entryX=0.5;entryY=1;entryDx=0;entryDy=0;" edge="1" parent="1" source="Mj1ySlkvwCl2qYuNJyu4-828" target="Mj1ySlkvwCl2qYuNJyu4-790">
          <mxGeometry relative="1" as="geometry" />
        </mxCell>
        <mxCell id="Mj1ySlkvwCl2qYuNJyu4-828" value="작성" style="rhombus;whiteSpace=wrap;html=1;fontSize=14;fontStyle=1;strokeWidth=2;" vertex="1" parent="1">
          <mxGeometry x="-210.9999999999999" y="2770.5" width="130" height="50" as="geometry" />
        </mxCell>
        <mxCell id="Mj1ySlkvwCl2qYuNJyu4-829" value="조회수" style="ellipse;whiteSpace=wrap;html=1;" vertex="1" parent="1">
          <mxGeometry x="714.3300000000003" y="2588" width="80" height="30" as="geometry" />
        </mxCell>
        <mxCell id="Mj1ySlkvwCl2qYuNJyu4-830" value="" style="endArrow=none;html=1;rounded=0;exitX=0;exitY=0.5;exitDx=0;exitDy=0;" edge="1" parent="1" source="Mj1ySlkvwCl2qYuNJyu4-829">
          <mxGeometry width="50" height="50" relative="1" as="geometry">
            <mxPoint x="723.3300000000003" y="2597.5" as="sourcePoint" />
            <mxPoint x="592.0000000000001" y="2523" as="targetPoint" />
          </mxGeometry>
        </mxCell>
        <mxCell id="Mj1ySlkvwCl2qYuNJyu4-831" value="조회수" style="ellipse;whiteSpace=wrap;html=1;" vertex="1" parent="1">
          <mxGeometry x="-517" y="3069.5" width="80" height="30" as="geometry" />
        </mxCell>
        <mxCell id="Mj1ySlkvwCl2qYuNJyu4-832" value="댓글" style="rounded=0;whiteSpace=wrap;html=1;fontSize=14;fontStyle=1;strokeWidth=2;" vertex="1" parent="1">
          <mxGeometry x="587.0000000000001" y="2940" width="130" height="50" as="geometry" />
        </mxCell>
        <mxCell id="Mj1ySlkvwCl2qYuNJyu4-833" value="댓글번호" style="ellipse;whiteSpace=wrap;html=1;fillColor=#b1ddf0;strokeColor=#10739e;fontStyle=4;" vertex="1" parent="1">
          <mxGeometry x="849.0000000000001" y="2889.5" width="80" height="30" as="geometry" />
        </mxCell>
        <mxCell id="Mj1ySlkvwCl2qYuNJyu4-834" value="댓글내용" style="ellipse;whiteSpace=wrap;html=1;" vertex="1" parent="1">
          <mxGeometry x="849.0000000000001" y="2928.5" width="80" height="30" as="geometry" />
        </mxCell>
        <mxCell id="Mj1ySlkvwCl2qYuNJyu4-835" value="작성자" style="ellipse;whiteSpace=wrap;html=1;" vertex="1" parent="1">
          <mxGeometry x="849.0000000000001" y="2969.5" width="80" height="30" as="geometry" />
        </mxCell>
        <mxCell id="Mj1ySlkvwCl2qYuNJyu4-836" value="작성일" style="ellipse;whiteSpace=wrap;html=1;" vertex="1" parent="1">
          <mxGeometry x="849.0000000000001" y="3009.5" width="80" height="30" as="geometry" />
        </mxCell>
        <mxCell id="Mj1ySlkvwCl2qYuNJyu4-837" value="" style="endArrow=none;html=1;rounded=0;exitX=0;exitY=0.5;exitDx=0;exitDy=0;entryX=1;entryY=0.5;entryDx=0;entryDy=0;" edge="1" parent="1" source="Mj1ySlkvwCl2qYuNJyu4-833" target="Mj1ySlkvwCl2qYuNJyu4-832">
          <mxGeometry width="50" height="50" relative="1" as="geometry">
            <mxPoint x="970.5" y="3031.5" as="sourcePoint" />
            <mxPoint x="717.0000000000001" y="3004" as="targetPoint" />
          </mxGeometry>
        </mxCell>
        <mxCell id="Mj1ySlkvwCl2qYuNJyu4-838" value="" style="endArrow=none;html=1;rounded=0;exitX=0;exitY=0.5;exitDx=0;exitDy=0;entryX=1;entryY=0.5;entryDx=0;entryDy=0;" edge="1" parent="1" source="Mj1ySlkvwCl2qYuNJyu4-834" target="Mj1ySlkvwCl2qYuNJyu4-832">
          <mxGeometry width="50" height="50" relative="1" as="geometry">
            <mxPoint x="970.5" y="3145.5" as="sourcePoint" />
            <mxPoint x="717.0000000000001" y="3004" as="targetPoint" />
          </mxGeometry>
        </mxCell>
        <mxCell id="Mj1ySlkvwCl2qYuNJyu4-839" value="" style="endArrow=none;html=1;rounded=0;exitX=0;exitY=0.5;exitDx=0;exitDy=0;entryX=1;entryY=0.5;entryDx=0;entryDy=0;" edge="1" parent="1" source="Mj1ySlkvwCl2qYuNJyu4-835" target="Mj1ySlkvwCl2qYuNJyu4-832">
          <mxGeometry width="50" height="50" relative="1" as="geometry">
            <mxPoint x="970.5" y="3185.5" as="sourcePoint" />
            <mxPoint x="862.5000000000001" y="3206.5" as="targetPoint" />
          </mxGeometry>
        </mxCell>
        <mxCell id="Mj1ySlkvwCl2qYuNJyu4-840" value="" style="endArrow=none;html=1;rounded=0;exitX=0;exitY=0.5;exitDx=0;exitDy=0;entryX=1;entryY=0.5;entryDx=0;entryDy=0;" edge="1" parent="1" source="Mj1ySlkvwCl2qYuNJyu4-836" target="Mj1ySlkvwCl2qYuNJyu4-832">
          <mxGeometry width="50" height="50" relative="1" as="geometry">
            <mxPoint x="970.5" y="3225.5" as="sourcePoint" />
            <mxPoint x="886.5000000000001" y="3222.5" as="targetPoint" />
          </mxGeometry>
        </mxCell>
        <mxCell id="Mj1ySlkvwCl2qYuNJyu4-841" value="조회수" style="ellipse;whiteSpace=wrap;html=1;" vertex="1" parent="1">
          <mxGeometry x="712.0000000000001" y="2809" width="80" height="30" as="geometry" />
        </mxCell>
        <mxCell id="Mj1ySlkvwCl2qYuNJyu4-842" value="" style="endArrow=none;html=1;rounded=0;exitX=0;exitY=0.5;exitDx=0;exitDy=0;entryX=1;entryY=0.5;entryDx=0;entryDy=0;" edge="1" parent="1" source="Mj1ySlkvwCl2qYuNJyu4-841" target="Mj1ySlkvwCl2qYuNJyu4-807">
          <mxGeometry width="50" height="50" relative="1" as="geometry">
            <mxPoint x="722.0000000000001" y="2794.5" as="sourcePoint" />
            <mxPoint x="591.0000000000001" y="2765" as="targetPoint" />
          </mxGeometry>
        </mxCell>
        <mxCell id="Mj1ySlkvwCl2qYuNJyu4-846" value="" style="endArrow=none;html=1;rounded=0;exitX=1;exitY=0.5;exitDx=0;exitDy=0;entryX=0;entryY=0.5;entryDx=0;entryDy=0;" edge="1" parent="1" source="Mj1ySlkvwCl2qYuNJyu4-806" target="Mj1ySlkvwCl2qYuNJyu4-816">
          <mxGeometry width="50" height="50" relative="1" as="geometry">
            <mxPoint x="-413" y="3049" as="sourcePoint" />
            <mxPoint x="-272" y="2994" as="targetPoint" />
          </mxGeometry>
        </mxCell>
        <mxCell id="Mj1ySlkvwCl2qYuNJyu4-847" value="" style="endArrow=none;html=1;rounded=0;exitX=1;exitY=0.5;exitDx=0;exitDy=0;entryX=0;entryY=0.5;entryDx=0;entryDy=0;" edge="1" parent="1" source="Mj1ySlkvwCl2qYuNJyu4-831" target="Mj1ySlkvwCl2qYuNJyu4-816">
          <mxGeometry width="50" height="50" relative="1" as="geometry">
            <mxPoint x="-413" y="3089" as="sourcePoint" />
            <mxPoint x="-272" y="2994" as="targetPoint" />
          </mxGeometry>
        </mxCell>
        <mxCell id="Mj1ySlkvwCl2qYuNJyu4-848" value="" style="endArrow=classic;html=1;rounded=0;exitX=1;exitY=0.5;exitDx=0;exitDy=0;entryX=0;entryY=0.5;entryDx=0;entryDy=0;" edge="1" parent="1" source="Mj1ySlkvwCl2qYuNJyu4-780" target="Mj1ySlkvwCl2qYuNJyu4-832">
          <mxGeometry width="50" height="50" relative="1" as="geometry">
            <mxPoint x="465.0000000000001" y="2496" as="sourcePoint" />
            <mxPoint x="698.0000000000001" y="2596" as="targetPoint" />
          </mxGeometry>
        </mxCell>
        <mxCell id="Mj1ySlkvwCl2qYuNJyu4-850" value="" style="endArrow=classic;html=1;rounded=0;entryX=0.5;entryY=0;entryDx=0;entryDy=0;exitX=1;exitY=0.5;exitDx=0;exitDy=0;" edge="1" parent="1" source="Mj1ySlkvwCl2qYuNJyu4-828" target="Mj1ySlkvwCl2qYuNJyu4-777">
          <mxGeometry width="50" height="50" relative="1" as="geometry">
            <mxPoint x="-62.999999999999886" y="3101" as="sourcePoint" />
            <mxPoint x="-10.999999999999886" y="2970" as="targetPoint" />
            <Array as="points" />
          </mxGeometry>
        </mxCell>
        <mxCell id="Mj1ySlkvwCl2qYuNJyu4-851" value="" style="endArrow=classic;html=1;rounded=0;entryX=0.5;entryY=0;entryDx=0;entryDy=0;exitX=0;exitY=0.5;exitDx=0;exitDy=0;" edge="1" parent="1" source="Mj1ySlkvwCl2qYuNJyu4-828" target="Mj1ySlkvwCl2qYuNJyu4-816">
          <mxGeometry width="50" height="50" relative="1" as="geometry">
            <mxPoint x="-116" y="3029.5" as="sourcePoint" />
            <mxPoint x="-45.999999999999886" y="3029.5" as="targetPoint" />
            <Array as="points" />
          </mxGeometry>
        </mxCell>
        <mxCell id="Mj1ySlkvwCl2qYuNJyu4-854" value="읽기" style="rhombus;whiteSpace=wrap;html=1;fontSize=14;fontStyle=1;strokeWidth=2;" vertex="1" parent="1">
          <mxGeometry x="121.00000000000011" y="2592" width="130" height="50" as="geometry" />
        </mxCell>
        <mxCell id="Mj1ySlkvwCl2qYuNJyu4-857" value="" style="endArrow=none;html=1;rounded=0;exitX=0;exitY=0.5;exitDx=0;exitDy=0;entryX=1;entryY=0.5;entryDx=0;entryDy=0;" edge="1" parent="1" source="Mj1ySlkvwCl2qYuNJyu4-749" target="Mj1ySlkvwCl2qYuNJyu4-854">
          <mxGeometry width="50" height="50" relative="1" as="geometry">
            <mxPoint x="251" y="2481" as="sourcePoint" />
            <mxPoint x="-170" y="2550" as="targetPoint" />
          </mxGeometry>
        </mxCell>
        <mxCell id="Mj1ySlkvwCl2qYuNJyu4-858" value="" style="endArrow=none;html=1;rounded=0;exitX=0;exitY=0.5;exitDx=0;exitDy=0;entryX=1;entryY=0.5;entryDx=0;entryDy=0;" edge="1" parent="1" source="Mj1ySlkvwCl2qYuNJyu4-807" target="Mj1ySlkvwCl2qYuNJyu4-854">
          <mxGeometry width="50" height="50" relative="1" as="geometry">
            <mxPoint x="572" y="2710.5" as="sourcePoint" />
            <mxPoint x="151" y="2779.5" as="targetPoint" />
          </mxGeometry>
        </mxCell>
        <mxCell id="Mj1ySlkvwCl2qYuNJyu4-894" style="edgeStyle=orthogonalEdgeStyle;rounded=0;orthogonalLoop=1;jettySize=auto;html=1;exitX=1;exitY=0.5;exitDx=0;exitDy=0;entryX=0;entryY=0.5;entryDx=0;entryDy=0;" edge="1" parent="1" source="Mj1ySlkvwCl2qYuNJyu4-860" target="Mj1ySlkvwCl2qYuNJyu4-869">
          <mxGeometry relative="1" as="geometry" />
        </mxCell>
        <mxCell id="Mj1ySlkvwCl2qYuNJyu4-860" value="강의" style="rounded=0;whiteSpace=wrap;html=1;fontSize=14;fontStyle=1;strokeWidth=2;" vertex="1" parent="1">
          <mxGeometry x="-210.9999999999999" y="1540" width="130" height="50" as="geometry" />
        </mxCell>
        <mxCell id="Mj1ySlkvwCl2qYuNJyu4-861" value="글번호" style="ellipse;whiteSpace=wrap;html=1;fillColor=#b1ddf0;strokeColor=#10739e;fontStyle=4;" vertex="1" parent="1">
          <mxGeometry x="-529.9999999999999" y="1390" width="80" height="30" as="geometry" />
        </mxCell>
        <mxCell id="Mj1ySlkvwCl2qYuNJyu4-862" value="글제목" style="ellipse;whiteSpace=wrap;html=1;" vertex="1" parent="1">
          <mxGeometry x="-429.9999999999999" y="1390" width="80" height="30" as="geometry" />
        </mxCell>
        <mxCell id="Mj1ySlkvwCl2qYuNJyu4-863" value="글내용" style="ellipse;whiteSpace=wrap;html=1;" vertex="1" parent="1">
          <mxGeometry x="-339.9999999999999" y="1390" width="80" height="30" as="geometry" />
        </mxCell>
        <mxCell id="Mj1ySlkvwCl2qYuNJyu4-864" value="교재명" style="ellipse;whiteSpace=wrap;html=1;" vertex="1" parent="1">
          <mxGeometry x="-249" y="1390" width="80" height="30" as="geometry" />
        </mxCell>
        <mxCell id="Mj1ySlkvwCl2qYuNJyu4-865" value="" style="endArrow=none;html=1;rounded=0;exitX=0.5;exitY=1;exitDx=0;exitDy=0;entryX=0.5;entryY=0;entryDx=0;entryDy=0;" edge="1" parent="1" source="Mj1ySlkvwCl2qYuNJyu4-861" target="Mj1ySlkvwCl2qYuNJyu4-860">
          <mxGeometry width="50" height="50" relative="1" as="geometry">
            <mxPoint x="226.0000000000001" y="1435" as="sourcePoint" />
            <mxPoint x="362.0000000000001" y="1515" as="targetPoint" />
          </mxGeometry>
        </mxCell>
        <mxCell id="Mj1ySlkvwCl2qYuNJyu4-866" value="" style="endArrow=none;html=1;rounded=0;exitX=0.5;exitY=1;exitDx=0;exitDy=0;entryX=0.5;entryY=0;entryDx=0;entryDy=0;" edge="1" parent="1" source="Mj1ySlkvwCl2qYuNJyu4-862" target="Mj1ySlkvwCl2qYuNJyu4-860">
          <mxGeometry width="50" height="50" relative="1" as="geometry">
            <mxPoint x="451.0000000000001" y="1506" as="sourcePoint" />
            <mxPoint x="352.0000000000001" y="1565" as="targetPoint" />
          </mxGeometry>
        </mxCell>
        <mxCell id="Mj1ySlkvwCl2qYuNJyu4-867" value="" style="endArrow=none;html=1;rounded=0;exitX=0.5;exitY=1;exitDx=0;exitDy=0;entryX=0.5;entryY=0;entryDx=0;entryDy=0;" edge="1" parent="1" source="Mj1ySlkvwCl2qYuNJyu4-863" target="Mj1ySlkvwCl2qYuNJyu4-860">
          <mxGeometry width="50" height="50" relative="1" as="geometry">
            <mxPoint x="451.0000000000001" y="1545" as="sourcePoint" />
            <mxPoint x="270" y="1640" as="targetPoint" />
          </mxGeometry>
        </mxCell>
        <mxCell id="Mj1ySlkvwCl2qYuNJyu4-868" value="" style="endArrow=none;html=1;rounded=0;exitX=0.5;exitY=1;exitDx=0;exitDy=0;entryX=0.5;entryY=0;entryDx=0;entryDy=0;" edge="1" parent="1" source="Mj1ySlkvwCl2qYuNJyu4-864" target="Mj1ySlkvwCl2qYuNJyu4-860">
          <mxGeometry width="50" height="50" relative="1" as="geometry">
            <mxPoint x="451.0000000000001" y="1585" as="sourcePoint" />
            <mxPoint x="300" y="1710" as="targetPoint" />
          </mxGeometry>
        </mxCell>
        <mxCell id="Mj1ySlkvwCl2qYuNJyu4-869" value="결제" style="rounded=0;whiteSpace=wrap;html=1;fontSize=14;fontStyle=1;strokeWidth=2;" vertex="1" parent="1">
          <mxGeometry x="60.000000000000114" y="1539.5" width="130" height="50" as="geometry" />
        </mxCell>
        <mxCell id="Mj1ySlkvwCl2qYuNJyu4-870" value="글번호" style="ellipse;whiteSpace=wrap;html=1;fillColor=#b1ddf0;strokeColor=#10739e;fontStyle=4;" vertex="1" parent="1">
          <mxGeometry x="300.0000000000001" y="1370" width="80" height="30" as="geometry" />
        </mxCell>
        <mxCell id="Mj1ySlkvwCl2qYuNJyu4-871" value="글제목" style="ellipse;whiteSpace=wrap;html=1;" vertex="1" parent="1">
          <mxGeometry x="300.0000000000001" y="1409" width="80" height="30" as="geometry" />
        </mxCell>
        <mxCell id="Mj1ySlkvwCl2qYuNJyu4-872" value="가격" style="ellipse;whiteSpace=wrap;html=1;" vertex="1" parent="1">
          <mxGeometry x="300.0000000000001" y="1449" width="80" height="30" as="geometry" />
        </mxCell>
        <mxCell id="Mj1ySlkvwCl2qYuNJyu4-873" value="포인트" style="ellipse;whiteSpace=wrap;html=1;" vertex="1" parent="1">
          <mxGeometry x="300.0000000000001" y="1489" width="80" height="30" as="geometry" />
        </mxCell>
        <mxCell id="Mj1ySlkvwCl2qYuNJyu4-874" value="" style="endArrow=none;html=1;rounded=0;exitX=0;exitY=0.5;exitDx=0;exitDy=0;entryX=1;entryY=0.5;entryDx=0;entryDy=0;" edge="1" parent="1" source="Mj1ySlkvwCl2qYuNJyu4-870" target="Mj1ySlkvwCl2qYuNJyu4-869">
          <mxGeometry width="50" height="50" relative="1" as="geometry">
            <mxPoint x="96.00000000000011" y="1444.5" as="sourcePoint" />
            <mxPoint x="232.0000000000001" y="1524.5" as="targetPoint" />
          </mxGeometry>
        </mxCell>
        <mxCell id="Mj1ySlkvwCl2qYuNJyu4-875" value="" style="endArrow=none;html=1;rounded=0;exitX=0;exitY=0.5;exitDx=0;exitDy=0;entryX=1;entryY=0.5;entryDx=0;entryDy=0;" edge="1" parent="1" source="Mj1ySlkvwCl2qYuNJyu4-871" target="Mj1ySlkvwCl2qYuNJyu4-869">
          <mxGeometry width="50" height="50" relative="1" as="geometry">
            <mxPoint x="321.0000000000001" y="1515.5" as="sourcePoint" />
            <mxPoint x="222.0000000000001" y="1574.5" as="targetPoint" />
          </mxGeometry>
        </mxCell>
        <mxCell id="Mj1ySlkvwCl2qYuNJyu4-876" value="" style="endArrow=none;html=1;rounded=0;exitX=0;exitY=0.5;exitDx=0;exitDy=0;entryX=1;entryY=0.5;entryDx=0;entryDy=0;" edge="1" parent="1" source="Mj1ySlkvwCl2qYuNJyu4-872" target="Mj1ySlkvwCl2qYuNJyu4-869">
          <mxGeometry width="50" height="50" relative="1" as="geometry">
            <mxPoint x="321.0000000000001" y="1554.5" as="sourcePoint" />
            <mxPoint x="200.0000000000001" y="1574.5" as="targetPoint" />
          </mxGeometry>
        </mxCell>
        <mxCell id="Mj1ySlkvwCl2qYuNJyu4-877" value="" style="endArrow=none;html=1;rounded=0;exitX=0;exitY=0.5;exitDx=0;exitDy=0;entryX=1;entryY=0.5;entryDx=0;entryDy=0;" edge="1" parent="1" source="Mj1ySlkvwCl2qYuNJyu4-873" target="Mj1ySlkvwCl2qYuNJyu4-869">
          <mxGeometry width="50" height="50" relative="1" as="geometry">
            <mxPoint x="321.0000000000001" y="1594.5" as="sourcePoint" />
            <mxPoint x="200.0000000000001" y="1574.5" as="targetPoint" />
          </mxGeometry>
        </mxCell>
        <mxCell id="Mj1ySlkvwCl2qYuNJyu4-878" value="가격" style="ellipse;whiteSpace=wrap;html=1;" vertex="1" parent="1">
          <mxGeometry x="-154.99999999999972" y="1390" width="80" height="30" as="geometry" />
        </mxCell>
        <mxCell id="Mj1ySlkvwCl2qYuNJyu4-879" value="" style="endArrow=none;html=1;rounded=0;exitX=0.5;exitY=1;exitDx=0;exitDy=0;entryX=0.5;entryY=0;entryDx=0;entryDy=0;" edge="1" parent="1" source="Mj1ySlkvwCl2qYuNJyu4-878" target="Mj1ySlkvwCl2qYuNJyu4-860">
          <mxGeometry width="50" height="50" relative="1" as="geometry">
            <mxPoint x="451.33000000000027" y="1629" as="sourcePoint" />
            <mxPoint x="270" y="1530" as="targetPoint" />
          </mxGeometry>
        </mxCell>
        <mxCell id="Mj1ySlkvwCl2qYuNJyu4-880" value="회원 아이디" style="ellipse;whiteSpace=wrap;html=1;" vertex="1" parent="1">
          <mxGeometry x="300.0000000000001" y="1529" width="80" height="30" as="geometry" />
        </mxCell>
        <mxCell id="Mj1ySlkvwCl2qYuNJyu4-881" value="" style="endArrow=none;html=1;rounded=0;exitX=0;exitY=0.5;exitDx=0;exitDy=0;entryX=1;entryY=0.5;entryDx=0;entryDy=0;" edge="1" parent="1" source="Mj1ySlkvwCl2qYuNJyu4-880" target="Mj1ySlkvwCl2qYuNJyu4-869">
          <mxGeometry width="50" height="50" relative="1" as="geometry">
            <mxPoint x="321.0000000000001" y="1634.5" as="sourcePoint" />
            <mxPoint x="190.0000000000001" y="1605" as="targetPoint" />
          </mxGeometry>
        </mxCell>
        <mxCell id="Mj1ySlkvwCl2qYuNJyu4-885" style="edgeStyle=orthogonalEdgeStyle;rounded=0;orthogonalLoop=1;jettySize=auto;html=1;exitX=0.5;exitY=1;exitDx=0;exitDy=0;entryX=0.5;entryY=0;entryDx=0;entryDy=0;" edge="1" parent="1" source="Mj1ySlkvwCl2qYuNJyu4-860" target="Mj1ySlkvwCl2qYuNJyu4-727">
          <mxGeometry relative="1" as="geometry">
            <mxPoint x="-50" y="1635.5" as="sourcePoint" />
          </mxGeometry>
        </mxCell>
        <mxCell id="Mj1ySlkvwCl2qYuNJyu4-888" value="강사 이름" style="ellipse;whiteSpace=wrap;html=1;" vertex="1" parent="1">
          <mxGeometry x="-59.999999999999716" y="1390" width="80" height="30" as="geometry" />
        </mxCell>
        <mxCell id="Mj1ySlkvwCl2qYuNJyu4-889" value="" style="endArrow=none;html=1;rounded=0;exitX=0.5;exitY=1;exitDx=0;exitDy=0;entryX=0.5;entryY=0;entryDx=0;entryDy=0;" edge="1" parent="1" source="Mj1ySlkvwCl2qYuNJyu4-888" target="Mj1ySlkvwCl2qYuNJyu4-860">
          <mxGeometry width="50" height="50" relative="1" as="geometry">
            <mxPoint x="556.3300000000003" y="1654" as="sourcePoint" />
            <mxPoint x="120" y="1555" as="targetPoint" />
          </mxGeometry>
        </mxCell>
        <mxCell id="Mj1ySlkvwCl2qYuNJyu4-890" value="이미지" style="ellipse;whiteSpace=wrap;html=1;" vertex="1" parent="1">
          <mxGeometry x="40.000000000000284" y="1390" width="80" height="30" as="geometry" />
        </mxCell>
        <mxCell id="Mj1ySlkvwCl2qYuNJyu4-891" value="" style="endArrow=none;html=1;rounded=0;exitX=0.5;exitY=1;exitDx=0;exitDy=0;entryX=0.5;entryY=0;entryDx=0;entryDy=0;" edge="1" parent="1" source="Mj1ySlkvwCl2qYuNJyu4-890" target="Mj1ySlkvwCl2qYuNJyu4-860">
          <mxGeometry width="50" height="50" relative="1" as="geometry">
            <mxPoint x="651.3300000000003" y="1679" as="sourcePoint" />
            <mxPoint x="215" y="1580" as="targetPoint" />
          </mxGeometry>
        </mxCell>
        <mxCell id="Mj1ySlkvwCl2qYuNJyu4-892" value="동영상" style="ellipse;whiteSpace=wrap;html=1;" vertex="1" parent="1">
          <mxGeometry x="130.00000000000028" y="1390" width="80" height="30" as="geometry" />
        </mxCell>
        <mxCell id="Mj1ySlkvwCl2qYuNJyu4-893" value="" style="endArrow=none;html=1;rounded=0;exitX=0.5;exitY=1;exitDx=0;exitDy=0;entryX=0.5;entryY=0;entryDx=0;entryDy=0;" edge="1" parent="1" source="Mj1ySlkvwCl2qYuNJyu4-892" target="Mj1ySlkvwCl2qYuNJyu4-860">
          <mxGeometry width="50" height="50" relative="1" as="geometry">
            <mxPoint x="651.3300000000003" y="1794" as="sourcePoint" />
            <mxPoint x="80" y="1630" as="targetPoint" />
          </mxGeometry>
        </mxCell>
        <mxCell id="Mj1ySlkvwCl2qYuNJyu4-895" value="회원 주소" style="ellipse;whiteSpace=wrap;html=1;" vertex="1" parent="1">
          <mxGeometry x="300.0000000000001" y="1570" width="80" height="30" as="geometry" />
        </mxCell>
        <mxCell id="Mj1ySlkvwCl2qYuNJyu4-896" value="" style="endArrow=none;html=1;rounded=0;exitX=0;exitY=0.5;exitDx=0;exitDy=0;entryX=1;entryY=0.5;entryDx=0;entryDy=0;" edge="1" parent="1" source="Mj1ySlkvwCl2qYuNJyu4-895" target="Mj1ySlkvwCl2qYuNJyu4-869">
          <mxGeometry width="50" height="50" relative="1" as="geometry">
            <mxPoint x="331.0000000000001" y="1725.5" as="sourcePoint" />
            <mxPoint x="200" y="1656" as="targetPoint" />
          </mxGeometry>
        </mxCell>
        <mxCell id="Mj1ySlkvwCl2qYuNJyu4-897" value="회원 연락처" style="ellipse;whiteSpace=wrap;html=1;" vertex="1" parent="1">
          <mxGeometry x="300.0000000000001" y="1610" width="80" height="30" as="geometry" />
        </mxCell>
        <mxCell id="Mj1ySlkvwCl2qYuNJyu4-898" value="" style="endArrow=none;html=1;rounded=0;exitX=0;exitY=0.5;exitDx=0;exitDy=0;entryX=1;entryY=0.5;entryDx=0;entryDy=0;" edge="1" parent="1" source="Mj1ySlkvwCl2qYuNJyu4-897" target="Mj1ySlkvwCl2qYuNJyu4-869">
          <mxGeometry width="50" height="50" relative="1" as="geometry">
            <mxPoint x="321.0000000000001" y="1790.5" as="sourcePoint" />
            <mxPoint x="190" y="1721" as="targetPoint" />
          </mxGeometry>
        </mxCell>
        <mxCell id="Mj1ySlkvwCl2qYuNJyu4-899" value="회원 이메일" style="ellipse;whiteSpace=wrap;html=1;" vertex="1" parent="1">
          <mxGeometry x="300.0000000000001" y="1649.5" width="80" height="30" as="geometry" />
        </mxCell>
        <mxCell id="Mj1ySlkvwCl2qYuNJyu4-900" value="" style="endArrow=none;html=1;rounded=0;exitX=0;exitY=0.5;exitDx=0;exitDy=0;entryX=1;entryY=0.5;entryDx=0;entryDy=0;" edge="1" parent="1" source="Mj1ySlkvwCl2qYuNJyu4-899" target="Mj1ySlkvwCl2qYuNJyu4-869">
          <mxGeometry width="50" height="50" relative="1" as="geometry">
            <mxPoint x="331.0000000000001" y="1845" as="sourcePoint" />
            <mxPoint x="200" y="1775.5" as="targetPoint" />
          </mxGeometry>
        </mxCell>
        <mxCell id="Mj1ySlkvwCl2qYuNJyu4-901" value="결제 방법" style="ellipse;whiteSpace=wrap;html=1;" vertex="1" parent="1">
          <mxGeometry x="300.0000000000001" y="1690" width="80" height="30" as="geometry" />
        </mxCell>
        <mxCell id="Mj1ySlkvwCl2qYuNJyu4-902" value="" style="endArrow=none;html=1;rounded=0;exitX=0;exitY=0.5;exitDx=0;exitDy=0;entryX=1;entryY=0.5;entryDx=0;entryDy=0;" edge="1" parent="1" source="Mj1ySlkvwCl2qYuNJyu4-901" target="Mj1ySlkvwCl2qYuNJyu4-869">
          <mxGeometry width="50" height="50" relative="1" as="geometry">
            <mxPoint x="341.0000000000001" y="1921.5" as="sourcePoint" />
            <mxPoint x="210" y="1852" as="targetPoint" />
          </mxGeometry>
        </mxCell>
        <mxCell id="Mj1ySlkvwCl2qYuNJyu4-908" value="예약" style="rounded=0;whiteSpace=wrap;html=1;fontSize=14;fontStyle=1;strokeWidth=2;" vertex="1" parent="1">
          <mxGeometry x="277.6700000000001" y="1798" width="130" height="50" as="geometry" />
        </mxCell>
        <mxCell id="Mj1ySlkvwCl2qYuNJyu4-909" value="글번호" style="ellipse;whiteSpace=wrap;html=1;fillColor=#b1ddf0;strokeColor=#10739e;fontStyle=4;" vertex="1" parent="1">
          <mxGeometry x="628.6700000000001" y="1649.5" width="80" height="30" as="geometry" />
        </mxCell>
        <mxCell id="Mj1ySlkvwCl2qYuNJyu4-910" value="회원 아이디" style="ellipse;whiteSpace=wrap;html=1;" vertex="1" parent="1">
          <mxGeometry x="628.6700000000001" y="1688.5" width="80" height="30" as="geometry" />
        </mxCell>
        <mxCell id="Mj1ySlkvwCl2qYuNJyu4-911" value="예약자 이름" style="ellipse;whiteSpace=wrap;html=1;" vertex="1" parent="1">
          <mxGeometry x="628.6700000000001" y="1728.5" width="80" height="30" as="geometry" />
        </mxCell>
        <mxCell id="Mj1ySlkvwCl2qYuNJyu4-912" value="예약자 나이" style="ellipse;whiteSpace=wrap;html=1;" vertex="1" parent="1">
          <mxGeometry x="628.6700000000001" y="1768.5" width="80" height="30" as="geometry" />
        </mxCell>
        <mxCell id="Mj1ySlkvwCl2qYuNJyu4-913" value="" style="endArrow=none;html=1;rounded=0;exitX=0;exitY=0.5;exitDx=0;exitDy=0;entryX=1;entryY=0.5;entryDx=0;entryDy=0;" edge="1" parent="1" source="Mj1ySlkvwCl2qYuNJyu4-909" target="Mj1ySlkvwCl2qYuNJyu4-908">
          <mxGeometry width="50" height="50" relative="1" as="geometry">
            <mxPoint x="313.6700000000001" y="1703" as="sourcePoint" />
            <mxPoint x="449.6700000000001" y="1783" as="targetPoint" />
          </mxGeometry>
        </mxCell>
        <mxCell id="Mj1ySlkvwCl2qYuNJyu4-914" value="" style="endArrow=none;html=1;rounded=0;exitX=0;exitY=0.5;exitDx=0;exitDy=0;entryX=1;entryY=0.5;entryDx=0;entryDy=0;" edge="1" parent="1" source="Mj1ySlkvwCl2qYuNJyu4-910" target="Mj1ySlkvwCl2qYuNJyu4-908">
          <mxGeometry width="50" height="50" relative="1" as="geometry">
            <mxPoint x="538.6700000000001" y="1774" as="sourcePoint" />
            <mxPoint x="439.6700000000001" y="1833" as="targetPoint" />
          </mxGeometry>
        </mxCell>
        <mxCell id="Mj1ySlkvwCl2qYuNJyu4-915" value="" style="endArrow=none;html=1;rounded=0;exitX=0;exitY=0.5;exitDx=0;exitDy=0;entryX=1;entryY=0.5;entryDx=0;entryDy=0;" edge="1" parent="1" source="Mj1ySlkvwCl2qYuNJyu4-911" target="Mj1ySlkvwCl2qYuNJyu4-908">
          <mxGeometry width="50" height="50" relative="1" as="geometry">
            <mxPoint x="538.6700000000001" y="1813" as="sourcePoint" />
            <mxPoint x="417.6700000000001" y="1833" as="targetPoint" />
          </mxGeometry>
        </mxCell>
        <mxCell id="Mj1ySlkvwCl2qYuNJyu4-916" value="" style="endArrow=none;html=1;rounded=0;exitX=0;exitY=0.5;exitDx=0;exitDy=0;entryX=1;entryY=0.5;entryDx=0;entryDy=0;" edge="1" parent="1" source="Mj1ySlkvwCl2qYuNJyu4-912" target="Mj1ySlkvwCl2qYuNJyu4-908">
          <mxGeometry width="50" height="50" relative="1" as="geometry">
            <mxPoint x="538.6700000000001" y="1853" as="sourcePoint" />
            <mxPoint x="417.6700000000001" y="1833" as="targetPoint" />
          </mxGeometry>
        </mxCell>
        <mxCell id="Mj1ySlkvwCl2qYuNJyu4-917" value="예약자 학교" style="ellipse;whiteSpace=wrap;html=1;" vertex="1" parent="1">
          <mxGeometry x="631.0000000000002" y="1808" width="80" height="30" as="geometry" />
        </mxCell>
        <mxCell id="Mj1ySlkvwCl2qYuNJyu4-918" value="" style="endArrow=none;html=1;rounded=0;exitX=0;exitY=0.5;exitDx=0;exitDy=0;" edge="1" parent="1" source="Mj1ySlkvwCl2qYuNJyu4-917">
          <mxGeometry width="50" height="50" relative="1" as="geometry">
            <mxPoint x="539.0000000000002" y="1897" as="sourcePoint" />
            <mxPoint x="407.6700000000001" y="1822.5" as="targetPoint" />
          </mxGeometry>
        </mxCell>
        <mxCell id="Mj1ySlkvwCl2qYuNJyu4-920" value="" style="endArrow=none;html=1;rounded=0;exitX=1;exitY=0.5;exitDx=0;exitDy=0;entryX=0;entryY=0.5;entryDx=0;entryDy=0;" edge="1" parent="1" source="Mj1ySlkvwCl2qYuNJyu4-727" target="Mj1ySlkvwCl2qYuNJyu4-922">
          <mxGeometry width="50" height="50" relative="1" as="geometry">
            <mxPoint x="12" y="1860" as="sourcePoint" />
            <mxPoint x="50" y="2120" as="targetPoint" />
          </mxGeometry>
        </mxCell>
        <mxCell id="Mj1ySlkvwCl2qYuNJyu4-921" value="" style="endArrow=none;html=1;rounded=0;exitX=1;exitY=0.5;exitDx=0;exitDy=0;entryX=0;entryY=0.5;entryDx=0;entryDy=0;" edge="1" parent="1" source="Mj1ySlkvwCl2qYuNJyu4-727" target="Mj1ySlkvwCl2qYuNJyu4-908">
          <mxGeometry width="50" height="50" relative="1" as="geometry">
            <mxPoint x="22" y="1870" as="sourcePoint" />
            <mxPoint x="-88" y="1730" as="targetPoint" />
          </mxGeometry>
        </mxCell>
        <mxCell id="Mj1ySlkvwCl2qYuNJyu4-922" value="채팅" style="rounded=0;whiteSpace=wrap;html=1;fontSize=14;fontStyle=1;strokeWidth=2;" vertex="1" parent="1">
          <mxGeometry x="284.0000000000001" y="2188.5" width="130" height="50" as="geometry" />
        </mxCell>
        <mxCell id="Mj1ySlkvwCl2qYuNJyu4-923" value="메세지 타입" style="ellipse;whiteSpace=wrap;html=1;fillColor=#b1ddf0;strokeColor=#10739e;fontStyle=4;" vertex="1" parent="1">
          <mxGeometry x="627.34" y="2129.5" width="80" height="30" as="geometry" />
        </mxCell>
        <mxCell id="Mj1ySlkvwCl2qYuNJyu4-924" value="방번" style="ellipse;whiteSpace=wrap;html=1;" vertex="1" parent="1">
          <mxGeometry x="627.34" y="2168.5" width="80" height="30" as="geometry" />
        </mxCell>
        <mxCell id="Mj1ySlkvwCl2qYuNJyu4-925" value="보낸 사람" style="ellipse;whiteSpace=wrap;html=1;" vertex="1" parent="1">
          <mxGeometry x="627.34" y="2208.5" width="80" height="30" as="geometry" />
        </mxCell>
        <mxCell id="Mj1ySlkvwCl2qYuNJyu4-926" value="작성일" style="ellipse;whiteSpace=wrap;html=1;" vertex="1" parent="1">
          <mxGeometry x="627.34" y="2248.5" width="80" height="30" as="geometry" />
        </mxCell>
        <mxCell id="Mj1ySlkvwCl2qYuNJyu4-927" value="" style="endArrow=none;html=1;rounded=0;exitX=0;exitY=0.5;exitDx=0;exitDy=0;entryX=1;entryY=0.5;entryDx=0;entryDy=0;" edge="1" parent="1" source="Mj1ySlkvwCl2qYuNJyu4-923" target="Mj1ySlkvwCl2qYuNJyu4-922">
          <mxGeometry width="50" height="50" relative="1" as="geometry">
            <mxPoint x="412.34000000000003" y="2103" as="sourcePoint" />
            <mxPoint x="548.34" y="2183" as="targetPoint" />
          </mxGeometry>
        </mxCell>
        <mxCell id="Mj1ySlkvwCl2qYuNJyu4-928" value="" style="endArrow=none;html=1;rounded=0;exitX=0;exitY=0.5;exitDx=0;exitDy=0;entryX=1;entryY=0.5;entryDx=0;entryDy=0;" edge="1" parent="1" source="Mj1ySlkvwCl2qYuNJyu4-924" target="Mj1ySlkvwCl2qYuNJyu4-922">
          <mxGeometry width="50" height="50" relative="1" as="geometry">
            <mxPoint x="637.34" y="2174" as="sourcePoint" />
            <mxPoint x="538.34" y="2233" as="targetPoint" />
          </mxGeometry>
        </mxCell>
        <mxCell id="Mj1ySlkvwCl2qYuNJyu4-929" value="" style="endArrow=none;html=1;rounded=0;exitX=0;exitY=0.5;exitDx=0;exitDy=0;entryX=1;entryY=0.5;entryDx=0;entryDy=0;" edge="1" parent="1" source="Mj1ySlkvwCl2qYuNJyu4-925" target="Mj1ySlkvwCl2qYuNJyu4-922">
          <mxGeometry width="50" height="50" relative="1" as="geometry">
            <mxPoint x="637.34" y="2213" as="sourcePoint" />
            <mxPoint x="516.34" y="2233" as="targetPoint" />
          </mxGeometry>
        </mxCell>
        <mxCell id="Mj1ySlkvwCl2qYuNJyu4-930" value="" style="endArrow=none;html=1;rounded=0;exitX=0;exitY=0.5;exitDx=0;exitDy=0;entryX=1;entryY=0.5;entryDx=0;entryDy=0;" edge="1" parent="1" source="Mj1ySlkvwCl2qYuNJyu4-926" target="Mj1ySlkvwCl2qYuNJyu4-922">
          <mxGeometry width="50" height="50" relative="1" as="geometry">
            <mxPoint x="459.6700000000001" y="2365" as="sourcePoint" />
            <mxPoint x="338.6700000000001" y="2345" as="targetPoint" />
          </mxGeometry>
        </mxCell>
        <mxCell id="Mj1ySlkvwCl2qYuNJyu4-931" value="메세지" style="ellipse;whiteSpace=wrap;html=1;" vertex="1" parent="1">
          <mxGeometry x="628.6700000000002" y="2287.5" width="80" height="30" as="geometry" />
        </mxCell>
        <mxCell id="Mj1ySlkvwCl2qYuNJyu4-932" value="" style="endArrow=none;html=1;rounded=0;exitX=0;exitY=0.5;exitDx=0;exitDy=0;entryX=1;entryY=0.5;entryDx=0;entryDy=0;" edge="1" parent="1" source="Mj1ySlkvwCl2qYuNJyu4-931" target="Mj1ySlkvwCl2qYuNJyu4-922">
          <mxGeometry width="50" height="50" relative="1" as="geometry">
            <mxPoint x="460.0000000000002" y="2409" as="sourcePoint" />
            <mxPoint x="328.6700000000001" y="2334.5" as="targetPoint" />
          </mxGeometry>
        </mxCell>
        <mxCell id="Mj1ySlkvwCl2qYuNJyu4-933" value="예약자 학년" style="ellipse;whiteSpace=wrap;html=1;" vertex="1" parent="1">
          <mxGeometry x="631.0000000000002" y="1847.5" width="80" height="30" as="geometry" />
        </mxCell>
        <mxCell id="Mj1ySlkvwCl2qYuNJyu4-934" value="" style="endArrow=none;html=1;rounded=0;exitX=0;exitY=0.5;exitDx=0;exitDy=0;entryX=1;entryY=0.5;entryDx=0;entryDy=0;" edge="1" parent="1" source="Mj1ySlkvwCl2qYuNJyu4-933" target="Mj1ySlkvwCl2qYuNJyu4-908">
          <mxGeometry width="50" height="50" relative="1" as="geometry">
            <mxPoint x="520.0000000000002" y="1947" as="sourcePoint" />
            <mxPoint x="388.6700000000001" y="1872.5" as="targetPoint" />
          </mxGeometry>
        </mxCell>
        <mxCell id="Mj1ySlkvwCl2qYuNJyu4-935" value="이메일" style="ellipse;whiteSpace=wrap;html=1;" vertex="1" parent="1">
          <mxGeometry x="631.0000000000002" y="1887.5" width="80" height="30" as="geometry" />
        </mxCell>
        <mxCell id="Mj1ySlkvwCl2qYuNJyu4-936" value="" style="endArrow=none;html=1;rounded=0;exitX=0;exitY=0.5;exitDx=0;exitDy=0;entryX=1;entryY=0.5;entryDx=0;entryDy=0;" edge="1" parent="1" source="Mj1ySlkvwCl2qYuNJyu4-935" target="Mj1ySlkvwCl2qYuNJyu4-908">
          <mxGeometry width="50" height="50" relative="1" as="geometry">
            <mxPoint x="530.0000000000001" y="1957" as="sourcePoint" />
            <mxPoint x="398.6700000000001" y="1882.5" as="targetPoint" />
          </mxGeometry>
        </mxCell>
        <mxCell id="Mj1ySlkvwCl2qYuNJyu4-937" value="전화번호" style="ellipse;whiteSpace=wrap;html=1;" vertex="1" parent="1">
          <mxGeometry x="631.0000000000002" y="1927.5" width="80" height="30" as="geometry" />
        </mxCell>
        <mxCell id="Mj1ySlkvwCl2qYuNJyu4-938" value="" style="endArrow=none;html=1;rounded=0;exitX=0;exitY=0.5;exitDx=0;exitDy=0;entryX=1;entryY=0.5;entryDx=0;entryDy=0;" edge="1" parent="1" source="Mj1ySlkvwCl2qYuNJyu4-937" target="Mj1ySlkvwCl2qYuNJyu4-908">
          <mxGeometry width="50" height="50" relative="1" as="geometry">
            <mxPoint x="540.0000000000002" y="1967" as="sourcePoint" />
            <mxPoint x="408.6700000000001" y="1892.5" as="targetPoint" />
          </mxGeometry>
        </mxCell>
        <mxCell id="Mj1ySlkvwCl2qYuNJyu4-939" value="예약 날짜" style="ellipse;whiteSpace=wrap;html=1;" vertex="1" parent="1">
          <mxGeometry x="631.0000000000002" y="1967.5" width="80" height="30" as="geometry" />
        </mxCell>
        <mxCell id="Mj1ySlkvwCl2qYuNJyu4-940" value="" style="endArrow=none;html=1;rounded=0;exitX=0;exitY=0.5;exitDx=0;exitDy=0;entryX=1;entryY=0.5;entryDx=0;entryDy=0;" edge="1" parent="1" source="Mj1ySlkvwCl2qYuNJyu4-939" target="Mj1ySlkvwCl2qYuNJyu4-908">
          <mxGeometry width="50" height="50" relative="1" as="geometry">
            <mxPoint x="550.0000000000002" y="1977" as="sourcePoint" />
            <mxPoint x="417.66999999999996" y="1908" as="targetPoint" />
          </mxGeometry>
        </mxCell>
        <mxCell id="Mj1ySlkvwCl2qYuNJyu4-941" value="예약 시간" style="ellipse;whiteSpace=wrap;html=1;" vertex="1" parent="1">
          <mxGeometry x="631.0000000000002" y="2007.5" width="80" height="30" as="geometry" />
        </mxCell>
        <mxCell id="Mj1ySlkvwCl2qYuNJyu4-942" value="" style="endArrow=none;html=1;rounded=0;exitX=0;exitY=0.5;exitDx=0;exitDy=0;entryX=1;entryY=0.5;entryDx=0;entryDy=0;" edge="1" parent="1" source="Mj1ySlkvwCl2qYuNJyu4-941" target="Mj1ySlkvwCl2qYuNJyu4-908">
          <mxGeometry width="50" height="50" relative="1" as="geometry">
            <mxPoint x="560.0000000000002" y="1987" as="sourcePoint" />
            <mxPoint x="428.6700000000001" y="1912.5" as="targetPoint" />
          </mxGeometry>
        </mxCell>
        <mxCell id="Mj1ySlkvwCl2qYuNJyu4-943" value="예약 상태" style="ellipse;whiteSpace=wrap;html=1;" vertex="1" parent="1">
          <mxGeometry x="631.0000000000002" y="2047.5" width="80" height="30" as="geometry" />
        </mxCell>
        <mxCell id="Mj1ySlkvwCl2qYuNJyu4-944" value="" style="endArrow=none;html=1;rounded=0;exitX=0;exitY=0.5;exitDx=0;exitDy=0;entryX=1;entryY=0.5;entryDx=0;entryDy=0;" edge="1" parent="1" source="Mj1ySlkvwCl2qYuNJyu4-943" target="Mj1ySlkvwCl2qYuNJyu4-908">
          <mxGeometry width="50" height="50" relative="1" as="geometry">
            <mxPoint x="570.0000000000002" y="1997" as="sourcePoint" />
            <mxPoint x="438.6700000000001" y="1922.5" as="targetPoint" />
          </mxGeometry>
        </mxCell>
      </root>
    </mxGraphModel>
  </diagram>
</mxfile>
